<?xml version="1.0" standalone="no"?>
<!DOCTYPE svg PUBLIC "-//W3C//DTD SVG 20010904//EN"
 "http://www.w3.org/TR/2001/REC-SVG-20010904/DTD/svg10.dtd">
<svg version="1.0" xmlns="http://www.w3.org/2000/svg"
 width="127.000000pt" height="180.000000pt" viewBox="0 0 127.000000 180.000000"
 preserveAspectRatio="xMidYMid meet">

<g transform="translate(0.000000,180.000000) scale(0.100000,-0.100000)"
fill="#000000" stroke="none">
<path d="M568 1784 c-4 -3 -2 -20 3 -37 10 -35 3 -87 -12 -87 -5 0 -9 5 -9 10
0 6 -4 10 -10 10 -5 0 -10 -20 -10 -44 0 -31 5 -46 16 -50 13 -5 15 -1 10 18
-4 16 -1 26 9 30 11 4 14 0 11 -17 -13 -69 -28 -225 -46 -487 -12 -162 -25
-342 -30 -399 -6 -58 -10 -130 -10 -160 0 -76 -8 -99 -34 -103 -16 -2 -21 -10
-21 -30 1 -16 -3 -28 -7 -28 -17 0 -48 -41 -48 -64 0 -13 -6 -24 -12 -23 -35
1 -46 -5 -52 -28 -6 -22 -25 -31 -58 -26 -4 0 -10 -20 -14 -44 -5 -34 -11 -45
-24 -45 -22 0 -30 -19 -30 -68 0 -56 10 -63 81 -67 35 -2 112 -7 172 -11 96
-6 107 -5 107 10 0 13 -11 16 -60 16 -64 0 -68 4 -54 57 5 18 11 22 30 17 18
-5 24 -2 24 10 0 9 -7 16 -15 16 -9 0 -15 9 -15 25 0 14 5 25 12 25 6 0 21 8
32 17 21 18 21 18 4 -3 -23 -26 -23 -34 1 -34 24 0 32 -21 14 -38 -14 -14 -18
-72 -5 -72 13 0 45 98 39 120 -4 16 0 20 19 20 14 0 24 -6 24 -14 0 -8 3 -21
6 -29 4 -11 -2 -16 -18 -19 -22 -3 -23 -8 -26 -80 l-3 -78 30 0 c16 0 32 4 35
9 10 16 56 20 56 5 0 -16 59 -20 61 -4 1 6 2 15 3 22 1 12 22 16 131 24 39 3
75 10 82 15 6 6 34 10 62 11 l50 0 -3 61 c-3 60 -4 62 -32 67 -24 4 -30 11
-32 38 -3 29 -6 32 -38 32 -32 0 -34 2 -34 35 0 32 -2 35 -30 35 -17 0 -33 -6
-36 -14 -3 -8 -22 -17 -42 -21 -46 -9 -46 -9 -50 4 -2 6 3 8 12 5 11 -4 16 -1
16 10 0 12 10 16 35 16 19 0 35 3 34 8 -2 22 -18 47 -30 47 -8 0 -15 12 -17
27 -3 24 -8 27 -50 30 l-47 3 -7 45 c-3 25 -10 77 -13 115 -4 39 -9 73 -11 77
-3 4 -7 31 -10 60 -2 29 -7 62 -9 74 -2 11 -7 52 -10 90 -10 119 -35 385 -46
489 -15 146 -19 202 -13 188 8 -18 31 -16 38 2 3 9 -1 18 -10 22 -13 5 -13 8
3 26 18 19 17 20 -9 15 -22 -4 -28 -1 -28 13 0 13 5 17 16 12 14 -5 16 -2 10
23 -4 16 -14 34 -22 40 -7 6 -14 16 -14 23 0 12 -13 15 -22 5z m19 -316 c-3
-8 -6 -5 -6 6 -1 11 2 17 5 13 3 -3 4 -12 1 -19z m1 -104 c-2 -24 0 -44 4 -44
5 0 8 -4 8 -8 0 -5 -7 -9 -16 -9 -12 0 -14 7 -10 30 3 16 7 48 7 71 1 22 3 33
6 22 3 -10 3 -38 1 -62z m-8 -104 c0 -11 -4 -20 -9 -20 -5 0 -7 9 -4 20 3 11
7 20 9 20 2 0 4 -9 4 -20z m45 -228 c4 -12 3 -13 -10 -2 -12 10 -15 36 -14
134 l2 121 8 -119 c4 -65 11 -126 14 -134z m-58 176 c-3 -8 -6 -5 -6 6 -1 11
2 17 5 13 3 -3 4 -12 1 -19z m8 -85 c-4 -16 -7 -40 -7 -55 -1 -16 -5 -28 -10
-28 -8 0 -9 88 -1 103 11 20 25 5 18 -20z m19 -88 c3 -8 1 -15 -4 -15 -6 0
-10 7 -10 15 0 8 2 15 4 15 2 0 6 -7 10 -15z m36 -49 c0 -7 -7 -13 -15 -13 -8
0 -15 8 -15 18 0 12 5 16 15 13 8 -4 15 -12 15 -18z m-60 -16 c0 -11 -4 -20
-10 -20 -5 0 -10 -7 -10 -16 0 -8 4 -13 9 -10 5 3 11 -12 13 -33 2 -22 -1 -39
-6 -38 -5 1 -12 -6 -14 -15 -2 -11 2 -18 12 -18 9 0 16 -7 16 -15 0 -8 -4 -15
-10 -15 -5 0 -10 5 -10 10 0 6 -4 10 -10 10 -17 0 -11 -25 10 -48 11 -12 20
-27 20 -34 0 -10 -2 -10 -9 1 -5 7 -14 10 -20 7 -16 -10 -14 -26 4 -26 9 0 15
-9 14 -22 0 -13 -3 -18 -5 -11 -7 15 -34 5 -34 -12 0 -8 8 -16 19 -20 21 -6
31 -43 31 -110 0 -62 -7 -75 -42 -75 l-30 0 4 56 c5 55 25 86 40 61 11 -18 21
-1 13 23 -5 15 -12 19 -26 15 -15 -5 -19 -1 -19 18 0 37 20 288 26 325 5 35
24 44 24 12z m54 -46 c18 -18 22 -159 4 -148 -6 4 -14 0 -19 -7 -6 -9 -9 0 -9
28 0 34 3 41 15 37 8 -4 15 -1 15 5 0 7 -7 14 -15 17 -10 4 -15 20 -15 45 0
44 2 46 24 23z m-1 -196 c4 -10 8 -10 15 1 10 15 28 -2 18 -18 -8 -13 -56 0
-56 15 0 17 17 18 23 2z m4 -60 c8 20 33 14 33 -8 0 -17 -5 -19 -25 -14 -19 5
-25 2 -25 -10 0 -10 9 -16 24 -16 26 0 31 -12 41 -95 4 -33 1 -43 -16 -53 -12
-8 -18 -9 -14 -3 3 6 -1 11 -9 11 -9 0 -16 -4 -16 -10 0 -5 -4 -10 -10 -10 -5
0 -10 7 -10 15 0 11 11 15 36 15 45 0 42 24 -4 28 -18 2 -32 8 -32 14 0 6 12
8 30 5 22 -5 30 -3 30 8 0 10 -10 15 -30 15 -16 0 -30 5 -30 10 0 6 11 10 25
10 16 0 25 6 25 16 0 12 -7 15 -25 12 -23 -5 -25 -3 -25 36 0 32 3 38 11 26 8
-11 12 -12 16 -2z m-113 -230 c2 -2 6 -16 10 -31 6 -26 5 -27 -13 -18 -11 6
-29 11 -40 11 -20 0 -30 28 -16 42 6 5 55 2 59 -4z m186 -23 c0 -30 -3 -35
-24 -35 -19 0 -24 5 -22 23 7 57 46 67 46 12z m-72 -9 c-4 -25 -58 -37 -58
-12 0 31 11 43 36 38 19 -3 24 -10 22 -26z m182 -26 c0 -8 -67 -6 -76 2 -3 4
-3 11 0 16 6 11 76 -6 76 -18z m-347 -30 c-7 -27 -53 -28 -53 -1 0 13 8 21 23
23 30 5 36 1 30 -22z m41 -7 c-10 -40 -14 -41 -14 -5 0 18 5 32 10 32 6 0 8
-11 4 -27z m228 -18 c-7 -38 -22 -30 -22 11 0 30 3 34 14 25 7 -6 11 -22 8
-36z m-152 14 c0 -12 5 -19 13 -16 6 2 12 10 12 18 0 8 6 14 13 13 6 -1 23 -2
36 -2 28 -2 39 -23 27 -55 -9 -22 -7 -23 27 -21 21 1 31 0 25 -3 -21 -8 -15
-23 8 -23 16 0 20 5 16 20 -3 11 -2 20 3 20 4 0 10 -12 13 -26 5 -26 3 -26
-37 -21 -56 6 -70 10 -78 22 -5 7 -11 6 -15 -1 -5 -7 -30 -14 -57 -15 -46 -4
-50 -2 -57 23 -7 26 -6 27 13 17 43 -23 128 -19 128 6 0 9 -14 12 -52 10 -62
-3 -88 8 -88 35 0 15 7 20 25 20 19 0 25 -5 25 -21z m-132 -42 c6 -5 17 -5 22
-2 6 4 10 -7 10 -24 0 -26 -4 -31 -24 -31 -19 0 -25 6 -28 27 -4 36 -28 43
-28 8 0 -21 -4 -26 -16 -21 -9 3 -22 6 -30 6 -8 0 -14 10 -14 21 0 17 5 20 25
17 14 -3 28 -1 31 3 6 10 33 7 52 -4z m460 -12 c0 -25 -23 -35 -30 -13 -4 10
-13 10 -41 1 -20 -6 -37 -7 -37 -3 0 14 14 19 54 22 21 1 40 6 42 10 9 13 12
9 12 -17z m-40 -49 c7 -4 29 -5 49 -1 28 5 39 2 54 -14 11 -11 19 -22 19 -23
0 -8 -80 -6 -85 1 -2 5 3 8 12 7 9 0 18 4 20 10 5 14 -89 6 -98 -8 -3 -5 -9
-1 -12 11 -7 30 9 37 41 17z m-485 -12 c45 -5 57 -10 53 -21 -3 -8 -6 -21 -6
-29 0 -9 -5 -12 -11 -8 -7 4 -25 7 -40 6 -24 -1 -29 3 -29 24 0 13 -4 24 -10
24 -5 0 -10 -13 -10 -28 0 -24 -4 -28 -22 -26 -13 1 -26 3 -30 3 -5 1 -8 17
-8 37 0 33 2 35 28 30 15 -3 53 -8 85 -12z m321 0 c39 -6 46 -10 41 -25 -4
-13 -1 -19 9 -19 8 0 21 -3 30 -6 12 -4 16 0 16 15 0 13 -6 21 -17 21 -15 0
-16 2 -3 10 17 11 30 -4 30 -37 0 -18 -6 -23 -25 -23 -16 0 -25 -6 -25 -15 0
-11 11 -15 38 -15 28 0 39 -4 39 -15 0 -8 -4 -15 -9 -15 -4 0 -8 5 -8 11 0 6
-6 9 -12 6 -7 -2 -13 -12 -13 -23 0 -13 -7 -19 -25 -19 -23 0 -24 3 -21 48 2
44 1 47 -23 47 -18 0 -25 6 -28 22 -4 28 -28 36 -28 9 0 -11 5 -23 10 -26 20
-13 9 -31 -17 -30 -16 1 -34 -3 -40 -8 -9 -7 -13 -4 -13 7 0 9 5 16 10 16 6 0
10 16 10 35 0 38 1 39 74 29z m326 -64 c0 -11 -4 -20 -9 -20 -5 0 -7 9 -4 20
3 11 7 20 9 20 2 0 4 -9 4 -20z m-133 4 c-3 -3 -12 -4 -19 -1 -8 3 -5 6 6 6
11 1 17 -2 13 -5z m-633 -10 c11 -4 16 -19 16 -43 0 -33 -2 -36 -30 -36 -29 0
-30 2 -30 43 0 43 8 50 44 36z m726 -4 c0 -5 -4 -10 -10 -10 -5 0 -10 5 -10
10 0 6 5 10 10 10 6 0 10 -4 10 -10z m-587 -9 c4 -1 7 -18 7 -38 l0 -38 -52 3
c-51 3 -53 5 -55 33 -3 40 23 50 100 40z m522 -15 c-16 -14 -31 -20 -33 -15
-2 5 -11 9 -20 10 -9 1 1 7 23 14 58 19 64 18 30 -9z m-338 -23 c-3 -10 -5 -4
-5 12 0 17 2 24 5 18 2 -7 2 -21 0 -30z m367 2 c-4 -8 -13 -15 -22 -15 -13 0
-12 3 4 15 24 18 25 18 18 0z m-248 -12 c16 -22 18 -59 3 -69 -8 -4 -9 0 -4
15 3 11 2 21 -3 21 -5 0 -9 8 -8 17 1 12 -8 18 -32 20 -24 2 -32 -1 -29 -10 2
-6 8 -11 13 -10 5 0 15 -5 22 -13 11 -12 8 -14 -19 -14 -23 0 -30 4 -26 15 4
8 2 17 -3 20 -22 14 -7 25 31 25 28 0 46 -6 55 -17z m174 -4 c0 -6 -4 -7 -10
-4 -5 3 -10 11 -10 16 0 6 5 7 10 4 6 -3 10 -11 10 -16z m-283 -66 c-3 -10 -5
-2 -5 17 0 19 2 27 5 18 2 -10 2 -26 0 -35z"/>
<path d="M532 540 c-17 -27 -16 -30 14 -30 20 0 25 4 20 16 -3 9 -6 20 -6 25
0 16 -15 10 -28 -11z"/>
<path d="M540 484 c0 -17 22 -14 28 4 2 7 -3 12 -12 12 -9 0 -16 -7 -16 -16z"/>
<path d="M665 420 c-3 -5 -3 -15 1 -21 6 -11 23 6 24 24 0 10 -18 9 -25 -3z"/>
</g>
</svg>
