<?xml version="1.0" standalone="no"?>
<!DOCTYPE svg PUBLIC "-//W3C//DTD SVG 20010904//EN"
 "http://www.w3.org/TR/2001/REC-SVG-20010904/DTD/svg10.dtd">
<svg version="1.0" xmlns="http://www.w3.org/2000/svg"
 width="127.000000pt" height="180.000000pt" viewBox="0 0 127.000000 180.000000"
 preserveAspectRatio="xMidYMid meet">

<g transform="translate(0.000000,180.000000) scale(0.100000,-0.100000)"
fill="#000000" stroke="none">
<path d="M577 1723 c4 -42 2 -63 -7 -68 -7 -4 -16 -2 -21 6 -5 8 -9 12 -10 9
-7 -45 -7 -70 0 -70 5 0 11 9 14 20 3 11 11 20 17 20 13 0 14 3 -14 -270 -9
-85 -21 -220 -26 -300 -25 -381 -41 -586 -45 -598 -3 -7 -10 -10 -15 -7 -14 9
-40 -13 -40 -34 1 -14 2 -14 14 2 10 13 24 17 48 15 29 -3 33 -7 36 -35 3 -32
2 -33 -30 -27 -18 3 -39 7 -46 10 -7 2 -23 -1 -37 -6 -19 -7 -25 -17 -25 -40
0 -27 -3 -30 -30 -30 -26 0 -31 -5 -36 -30 -5 -25 -11 -30 -34 -30 -29 0 -40
-15 -40 -55 0 -17 -6 -25 -23 -27 -19 -3 -22 -10 -25 -60 -2 -32 1 -59 5 -59
27 -5 65 -8 113 -9 30 -1 80 -6 110 -12 37 -6 67 -6 90 0 33 10 31 10 -27 11
l-63 1 0 34 c0 54 8 67 38 59 17 -4 23 -2 18 6 -4 6 -14 11 -22 11 -29 0 -14
51 19 63 11 4 17 17 17 40 0 44 5 48 45 31 37 -15 101 -19 109 -6 2 4 -16 9
-41 10 -68 3 -83 10 -83 38 0 22 4 25 28 22 15 -2 26 -8 25 -15 -2 -7 2 -13 7
-13 6 0 10 6 10 14 0 10 13 14 45 14 41 -1 45 -3 45 -25 0 -13 4 -22 9 -19 4
3 6 17 3 32 -4 21 -1 25 14 22 14 -2 19 -12 19 -38 0 -32 -2 -35 -27 -32 -16
2 -28 -1 -28 -6 0 -12 30 -12 63 0 22 8 27 16 25 39 -1 17 -11 32 -25 40 -29
16 -24 35 8 31 13 -1 32 -4 42 -5 21 -2 23 -27 2 -27 -10 0 -15 -9 -14 -27 1
-17 3 -21 6 -10 4 15 22 21 61 20 6 -1 12 10 12 23 0 17 -6 24 -19 24 -14 0
-21 8 -23 27 -3 26 -7 28 -50 31 -40 3 -49 7 -53 25 -6 29 -53 387 -59 457 -6
59 -20 214 -36 400 -6 63 -13 131 -16 150 -13 82 -14 130 -4 130 5 0 10 -4 10
-10 0 -5 7 -10 15 -10 8 0 15 5 15 10 0 6 -7 10 -15 10 -8 0 -15 7 -15 15 0 8
7 15 15 15 8 0 15 5 15 10 0 13 -6 13 -31 0 -16 -9 -19 -7 -19 15 0 16 6 25
15 25 22 0 18 23 -9 55 l-24 28 5 -60z m16 -318 c3 -50 8 -97 11 -105 3 -8 8
-55 10 -105 2 -49 9 -135 15 -190 6 -55 13 -131 15 -170 2 -38 7 -82 11 -97 9
-36 -1 -51 -25 -38 -22 12 -33 0 -19 -20 5 -8 9 -10 9 -4 0 7 11 9 25 6 35 -6
28 -35 -10 -43 -21 -5 -24 -7 -10 -9 11 -1 25 -2 32 -1 7 1 14 -26 18 -74 7
-67 5 -78 -11 -90 -27 -21 -69 -15 -69 10 0 16 7 20 33 20 17 0 32 3 32 7 0 5
-13 8 -30 8 -20 0 -30 5 -30 15 0 14 11 19 38 16 6 -1 12 3 12 9 0 5 -14 10
-31 10 -36 0 -35 21 2 31 l24 6 -25 4 c-24 4 -25 7 -24 72 0 54 4 70 20 83 15
12 15 15 2 11 -13 -5 -17 3 -20 34 -3 29 0 38 9 35 17 -7 16 2 -2 21 -14 13
-15 44 -12 216 3 111 3 207 0 214 -13 33 -18 4 -15 -91 2 -65 -1 -107 -8 -111
-5 -3 -10 -11 -10 -16 0 -6 5 -7 10 -4 6 4 10 -35 10 -110 0 -75 -4 -114 -10
-110 -5 3 -10 2 -10 -4 0 -5 5 -11 11 -13 9 -3 11 -36 8 -123 0 -11 0 -69 1
-129 0 -65 -4 -113 -10 -121 -6 -8 -16 -26 -21 -42 -8 -26 -9 -26 -6 10 2 30
0 37 -15 37 -14 0 -18 8 -18 43 -1 75 44 686 49 682 4 -2 6 29 7 68 2 184 8
256 19 245 2 -2 6 -44 8 -93z m115 -980 c0 -39 -2 -45 -21 -46 -12 0 -43 -2
-69 -4 -44 -2 -48 -1 -48 20 0 39 10 57 25 45 7 -6 19 -9 26 -8 8 2 13 -4 11
-14 -1 -9 2 -19 8 -23 6 -4 10 4 10 19 0 17 9 29 28 39 15 8 27 15 28 16 0 1
1 -19 2 -44z m24 -7 c-9 -9 -12 -7 -12 12 0 19 3 21 12 12 9 -9 9 -15 0 -24z
m38 12 c0 -5 -4 -10 -10 -10 -5 0 -10 5 -10 10 0 6 5 10 10 10 6 0 10 -4 10
-10z m27 -12 c-3 -8 -6 -5 -6 6 -1 11 2 17 5 13 3 -3 4 -12 1 -19z m-327 -66
c0 -26 -3 -29 -35 -30 -30 -1 -35 2 -35 22 0 29 3 31 40 34 27 2 30 -1 30 -26z
m40 -13 c0 -20 -4 -29 -12 -27 -18 6 -19 58 -2 58 9 0 14 -12 14 -31z m-51
-35 c26 -5 31 -11 31 -35 0 -33 -13 -43 -46 -35 -17 5 -24 13 -24 32 0 14 -4
23 -9 20 -5 -3 -7 -15 -4 -26 5 -18 2 -19 -28 -14 -19 4 -38 10 -43 15 -15 14
2 37 31 42 48 7 60 7 92 1z m-76 -73 c52 -6 52 -6 52 -41 0 -26 -4 -34 -15
-31 -8 2 -26 5 -40 6 -17 1 -26 8 -28 23 -5 30 -22 28 -22 -3 0 -18 -5 -25
-19 -25 -36 0 -51 12 -51 39 0 35 18 52 47 45 13 -4 47 -9 76 -13z m-93 -92
c5 -7 10 -7 14 -1 9 14 111 10 110 -5 -1 -7 -2 -26 -2 -43 l-2 -30 -67 1 c-38
1 -81 4 -98 8 -27 5 -30 10 -33 50 l-3 44 37 -6 c21 -4 41 -11 44 -18z"/>
<path d="M600 1020 c0 -5 5 -10 11 -10 5 0 7 5 4 10 -3 6 -8 10 -11 10 -2 0
-4 -4 -4 -10z"/>
<path d="M606 961 c-4 -7 -5 -15 -2 -18 9 -9 19 4 14 18 -4 11 -6 11 -12 0z"/>
<path d="M548 793 c6 -2 12 -11 12 -19 0 -8 5 -14 10 -14 7 0 7 6 0 20 -6 11
-16 20 -23 19 -9 0 -9 -2 1 -6z"/>
<path d="M540 671 c0 -10 19 -25 25 -20 1 2 -3 10 -11 17 -8 7 -14 8 -14 3z"/>
<path d="M530 601 c0 -5 7 -12 16 -15 22 -9 24 -8 18 9 -7 16 -34 21 -34 6z"/>
<path d="M536 535 c-3 -9 0 -15 8 -15 7 0 13 7 13 15 0 8 -4 15 -8 15 -4 0 -9
-7 -13 -15z"/>
<path d="M280 106 c0 -8 5 -18 10 -21 6 -3 10 3 10 14 0 12 -4 21 -10 21 -5 0
-10 -6 -10 -14z"/>
<path d="M893 343 c-12 -2 -27 -11 -33 -19 -7 -8 -21 -14 -31 -14 -28 0 -59
-35 -52 -59 3 -12 11 -21 18 -21 13 0 25 -30 25 -62 0 -14 -8 -18 -32 -18 -20
0 -28 -4 -22 -9 5 -5 21 -7 37 -4 22 4 27 11 27 34 0 16 -9 46 -20 66 -10 20
-17 39 -15 43 4 7 28 13 95 26 8 2 18 -2 22 -9 4 -7 8 2 8 21 0 17 -1 31 -2
31 -2 -1 -13 -4 -25 -6z"/>
<path d="M512 270 c0 -14 2 -19 5 -12 2 6 2 18 0 25 -3 6 -5 1 -5 -13z"/>
<path d="M632 254 c-12 -13 -42 -18 -89 -14 -13 1 -23 -4 -23 -11 0 -9 16 -10
63 -4 72 8 76 8 141 -1 32 -4 47 -3 43 3 -4 6 -27 13 -53 17 -26 3 -52 10 -58
15 -7 6 -16 4 -24 -5z"/>
<path d="M725 260 c-3 -5 1 -10 9 -10 8 0 18 5 21 10 3 6 -1 10 -9 10 -8 0
-18 -4 -21 -10z"/>
<path d="M821 261 c-8 -6 6 -11 43 -15 31 -4 61 -4 67 -1 12 8 59 -32 59 -51
0 -10 -9 -12 -30 -8 -21 5 -31 2 -35 -9 -4 -8 -24 -17 -46 -21 -34 -5 -39 -9
-39 -34 0 -27 -26 -46 -75 -54 -18 -3 -20 2 -18 45 1 43 -1 47 -23 47 -13 0
-24 -6 -24 -12 0 -17 -88 -17 -98 -1 -5 8 -13 9 -22 3 -19 -12 -26 -150 -7
-150 9 0 12 18 9 72 -2 40 -1 69 4 65 8 -7 14 -51 18 -114 1 -25 16 -32 16 -8
0 10 10 15 30 15 20 0 30 -5 30 -15 0 -8 6 -15 14 -15 27 0 46 12 46 30 0 19
6 20 158 36 34 3 65 10 68 15 3 5 25 9 50 9 l45 0 -3 57 c-3 54 -5 58 -28 58
-21 0 -26 5 -28 33 -3 30 -5 32 -43 32 -22 0 -49 -5 -59 -10 -13 -7 -21 -7
-25 0 -8 12 -35 13 -54 1z m130 -115 c-6 -14 -15 -26 -19 -26 -5 0 -21 -12
-36 -26 l-26 -26 -9 23 c-10 28 -4 49 15 50 37 4 74 19 74 31 0 6 2 9 5 6 3
-3 1 -17 -4 -32z m76 -2 c-10 -62 -27 -63 -19 -1 2 20 9 37 14 37 7 0 8 -14 5
-36z m-27 12 c0 -16 -18 -31 -27 -22 -8 8 5 36 17 36 5 0 10 -6 10 -14z m-270
-16 c0 -5 -4 -10 -10 -10 -5 0 -10 5 -10 10 0 6 5 10 10 10 6 0 10 -4 10 -10z
m-15 -54 c15 -34 11 -66 -6 -66 -5 0 -9 7 -9 16 0 14 -7 16 -39 11 -37 -5 -39
-3 -45 25 -8 41 -1 48 45 48 36 0 41 -3 54 -34z m244 10 c-2 -2 -15 -7 -29
-10 l-25 -7 25 20 c14 11 27 15 29 10 1 -6 1 -12 0 -13z"/>
<path d="M665 80 c-3 -5 1 -10 9 -10 9 0 16 5 16 10 0 6 -4 10 -9 10 -6 0 -13
-4 -16 -10z"/>
<path d="M860 209 l-25 -7 25 -1 c24 -2 24 -2 6 -16 -14 -11 -15 -15 -5 -14
19 1 57 17 42 18 -6 1 -13 7 -15 14 -2 9 -11 11 -28 6z"/>
<path d="M910 209 c0 -5 5 -7 10 -4 6 3 10 8 10 11 0 2 -4 4 -10 4 -5 0 -10
-5 -10 -11z"/>
<path d="M500 200 c0 -5 4 -10 9 -10 6 0 13 5 16 10 3 6 -1 10 -9 10 -9 0 -16
-4 -16 -10z"/>
<path d="M540 190 c0 -11 4 -20 9 -20 5 0 7 9 4 20 -3 11 -7 20 -9 20 -2 0 -4
-9 -4 -20z"/>
<path d="M610 190 c0 -11 4 -20 9 -20 5 0 7 9 4 20 -3 11 -7 20 -9 20 -2 0 -4
-9 -4 -20z"/>
<path d="M680 194 c0 -8 5 -12 10 -9 6 4 8 11 5 16 -9 14 -15 11 -15 -7z"/>
<path d="M760 200 c-26 -8 -24 -12 12 -13 12 -1 23 4 26 11 4 13 -1 14 -38 2z"/>
<path d="M528 143 c7 -3 16 -2 19 1 4 3 -2 6 -13 5 -11 0 -14 -3 -6 -6z"/>
<path d="M515 117 c-4 -10 -5 -21 -1 -24 10 -10 18 4 13 24 -4 17 -4 17 -12 0z"/>
</g>
</svg>
